<?xml version="1.0" encoding="utf-8"?>
<!-- Generator: Adobe Illustrator 25.4.1, SVG Export Plug-In . SVG Version: 6.00 Build 0)  -->
<svg version="1.1" id="Capa_1" xmlns="http://www.w3.org/2000/svg" xmlns:xlink="http://www.w3.org/1999/xlink" x="0px" y="0px"
	 viewBox="0 0 1000 1000" style="enable-background:new 0 0 1000 1000;" xml:space="preserve">
<style type="text/css">
	.st0{fill:#191D38;}
	.st1{fill:#FAB726;}
</style>
<g>
	<path class="st0" d="M626.27,315.98l-56.38-56.41c-2.62-2.62-6.18-4.1-9.89-4.1l-142.23-0.03c-25.32,0-45.93,20.91-45.93,46.57
		l0.03,180.3l30.23-51.72h46.52l25.72,115.57h28.03l-3.96-16.04c26.78,15.66,45.46,17.88,68.43,17.88
		c50.16,0,63.53-40.97,63.53-56.81h0V325.87C630.36,322.16,628.89,318.61,626.27,315.98z M565.73,274.65l45.42,45.43h-45.42V274.65z
		 M418.08,403.24l17.68-30.24l6.75,30.24H418.08z M616.82,455.91c-8.68-11.46-23.12-22.72-47.25-30.04
		c-41.86-12.7-49.59-18.91-49.59-26.57c0-7.97,4.7-12.01,13.31-12.01c7.34,0,19.48,5.67,25.41,9.12c6.52,3.81,14.9,1.62,18.71-4.9
		c3.82-6.52,1.63-14.9-4.89-18.72c-2.21-1.3-22.12-12.66-39.23-12.66c-11.95,0-22.62,4.11-30.03,11.57
		c-7.03,7.07-10.71,16.67-10.64,27.77c0.19,29.49,27.45,39.96,69.01,52.58c12.76,3.87,21.6,9.33,27.72,14.88
		c14.62,13.27,14.55,36.85-1.45,48.42c-5.01,3.63-11.65,6.14-20.43,6.14c-42.23,0-75.79-23.56-79.87-41.85l-35.61-159.57h-16.99
		l-49.47,84.65V302.02c0-18.12,14.47-32.86,32.25-32.86h127.58v50.86h6.78v13.67h64.87L616.82,455.91z"/>
	<path class="st1" d="M196.45,611.78h32.2l30.75,129.16h-30.21l-7.06-32.02h-60.78l-19.9,32.02h-29.31L196.45,611.78z
		 M218.34,688.66l-10.86-54.45l-33.65,54.45H218.34z"/>
	<path class="st1" d="M283.28,648.14c1.45-7.24,4.19-13.39,8.23-18.45c4.04-5.06,8.98-9.2,14.84-12.39
		c5.85-3.19,12.39-5.52,19.63-6.97c7.24-1.45,14.77-2.17,22.61-2.17c3.26,0,6.99,0.15,11.22,0.45c4.22,0.3,8.47,0.93,12.75,1.9
		c4.28,0.97,8.41,2.35,12.39,4.16c3.98,1.81,7.45,4.22,10.4,7.23c2.95,3.02,5.18,6.76,6.69,11.22c1.51,4.46,1.9,9.83,1.18,16.1
		h-29.31c0.24-2.53-0.03-5.03-0.81-7.51c-0.78-2.47-2.26-4.7-4.43-6.69c-2.17-1.99-5.13-3.59-8.86-4.8
		c-3.74-1.2-8.44-1.81-14.11-1.81c-9.04,0-16.61,1.42-22.7,4.25c-6.09,2.84-9.8,7.33-11.13,13.48c-0.72,3.86,0.06,6.85,2.35,8.96
		c2.29,2.11,5.58,3.77,9.86,4.97c4.28,1.21,9.23,2.14,14.83,2.8c5.61,0.66,11.33,1.42,17.18,2.26c5.85,0.84,11.52,1.96,17,3.34
		c5.49,1.39,10.19,3.47,14.11,6.24c3.92,2.77,6.81,6.39,8.68,10.85c1.87,4.46,2.08,10.13,0.63,17c-1.81,8.32-5.22,15.2-10.22,20.62
		c-5.01,5.43-10.85,9.71-17.55,12.85c-6.69,3.14-13.84,5.34-21.44,6.6c-7.6,1.27-14.83,1.9-21.71,1.9
		c-11.58,0-21.25-1.09-29.03-3.26c-7.78-2.17-13.9-5.24-18.36-9.23c-4.46-3.98-7.33-8.77-8.59-14.38
		c-1.27-5.61-1.24-11.79,0.09-18.54h29.31c-1.45,8.68,0.66,15.05,6.33,19.08c5.67,4.04,14.17,6.06,25.51,6.06
		c4.1,0,8.14-0.33,12.12-0.99c3.98-0.66,7.6-1.75,10.85-3.26c3.26-1.51,6-3.47,8.23-5.88c2.23-2.41,3.71-5.37,4.43-8.87
		c0.84-3.98,0.15-7.15-2.08-9.5c-2.23-2.35-5.42-4.19-9.59-5.52c-4.16-1.32-8.99-2.38-14.47-3.16c-5.49-0.78-11.12-1.63-16.91-2.53
		c-5.79-0.91-11.37-2.08-16.73-3.53c-5.37-1.45-10.01-3.5-13.93-6.15c-3.92-2.65-6.82-6.12-8.68-10.4
		C282.22,660.23,281.95,654.77,283.28,648.14"/>
	<polygon class="st0" points="555.65,691.42 538.81,706.27 538.81,741.03 487.76,741.03 487.76,611.77 538.81,611.77 538.81,657.39 
		586.24,611.77 653.95,611.77 596.2,661.73 658.84,741.03 590.95,741.03 	"/>
	<path class="st0" d="M665.36,611.77h105.36c9.05,0,16.72,0.99,22.99,2.99c6.27,1.99,11.41,4.92,15.39,8.78
		c3.98,3.86,6.85,8.57,8.6,14.12c1.75,5.55,2.62,11.95,2.62,19.19c0,6.15-0.88,11.92-2.62,17.29c-1.75,5.37-4.56,10.05-8.42,14.03
		s-8.94,7.09-15.21,9.32c-6.28,2.23-13.94,3.35-22.99,3.35h-54.67v40.19h-51.05V611.77z M716.41,669.34h32.95
		c6.52,0,11.1-1.06,13.76-3.17c2.65-2.11,3.98-5.52,3.98-10.23c0-5.07-1.33-8.63-3.98-10.68c-2.66-2.05-7.24-3.08-13.76-3.08h-32.95
		V669.34z"/>
	<rect x="836.8" y="611.77" class="st0" width="51.05" height="129.26"/>
</g>
</svg>
